# xmcd
#
# Track frame offsets: 
#        151
#        22841
#        43644
#        63206
#        85667
#        106220
#        127848
#        149279
#        173713
#        192585
#        216533
#        236164
#        254160
#        274727
#        294233
#
# Disc length: 4172 seconds
#
# Revision: 4
# Processed by: cddbd v1.5.2PL0 Copyright (c) Steve Scherf et al.
# Submitted via: ExactAudioCopy v0.95a5
#
DISCID=da104a0f
DTITLE=Beyond - 光辉岁月
DYEAR=2001
DGENRE=Rock
TTITLE0=冷雨夜
TTITLE1=真的爱你
TTITLE2=大地
TTITLE3=光辉岁月
TTITLE4=喜欢你
TTITLE5=AMANI
TTITLE6=岁月无声
TTITLE7=灰色轨迹
TTITLE8=不再犹豫
TTITLE9=旧日的足迹
TTITLE10=昔日舞曲
TTITLE11=无悔这一生
TTITLE12=午夜怨曲
TTITLE13=愿我能
TTITLE14=谁伴我闯荡
EXTD=Beyond VOL.1
EXTT0=NB]
EXTT1=u悍Rp
EXTT2=ja
EXTT3=谨烦る
EXTT4=尺wp
EXTT5=AMANI
EXTT6=烦るLn
EXTT7=η猸y格
EXTT8=ぃAS枯
EXTT9=侣ら酣格
EXTT10=11.Xi Ri Wu Qu
EXTT11=Lo@ネ
EXTT12=と]瑕
EXTT13=@и
EXTT14=街瘰'亢
PLAYORDER=
